<svg xmlns="http://www.w3.org/2000/svg" xmlns:xlink="http://www.w3.org/1999/xlink" viewBox="0 0 82.69092803329688 95.481" height="95.481" width="82.69092803329688" data-background-color="#ffffff" preserveAspectRatio="xMidYMid meet" id="tight-bounds"><g><svg viewBox="0 0 82.69092803329688 95.481" height="95.481" width="82.69092803329688"><g><svg viewBox="0 0 82.69092803329688 95.481" height="95.481" width="82.69092803329688"><g id="textblocktransform"><svg viewBox="0 0 82.69092803329688 95.481" height="95.481" width="82.69092803329688" id="textblock"><g><svg viewBox="0 0 82.69092803329688 95.481" height="95.481" width="82.69092803329688"><g><svg viewBox="0 0 82.69092803329688 95.481" height="95.481" width="82.69092803329688"><g><svg xmlns="http://www.w3.org/2000/svg" xmlns:xlink="http://www.w3.org/1999/xlink" version="1.1" x="0" y="0" viewBox="9.54699993133545 3.2899999618530273 80.906005859375 93.41999816894531" enable-background="new 0 0 100 100" xml:space="preserve" height="95.481" width="82.69092803329688" class="icon-icon-0" data-fill-palette-color="accent" id="icon-0"><g fill="#0165bf" data-fill-palette-color="accent"><path d="M31.112 39.094v21.812L49.999 71.81l18.89-10.903V39.094l-18.89-10.905L31.112 39.094zM60.925 56.308l-10.926 6.307-10.924-6.307V43.692l10.924-6.308 10.926 6.308V56.308z" fill="#0165bf" data-fill-palette-color="accent"/><path d="M49.999 3.29L9.547 26.646v46.709L49.999 96.71l40.454-23.355V26.646L49.999 3.29zM82.19 68.584L49.999 87.169 17.811 68.584v-37.17l32.188-18.585L82.19 31.414V68.584z" fill="#0165bf" data-fill-palette-color="accent"/><path d="M20.368 32.89v34.218l29.631 17.108 29.634-17.108V32.89L49.999 15.782 20.368 32.89zM71.446 62.383l-21.447 12.38-21.444-12.38V37.618l21.444-12.382 21.447 12.382V62.383z" fill="#0165bf" data-fill-palette-color="accent"/></g></svg></g></svg></g></svg></g></svg></g></svg></g></svg></g><defs/></svg>